<svg width="16" height="16" viewBox="0 0 16 16" fill="none" xmlns="http://www.w3.org/2000/svg">
<path d="M8.46869 12.4648C8.55609 12.5519 8.62544 12.6554 8.67275 12.7694C8.72007 12.8833 8.74443 13.0055 8.74443 13.1289C8.74443 13.2523 8.72007 13.3745 8.67275 13.4884C8.62544 13.6024 8.55609 13.7059 8.46869 13.793L8.00463 14.257C7.12527 15.1364 5.9326 15.6304 4.689 15.6304C3.4454 15.6304 2.25274 15.1364 1.37338 14.257C0.494018 13.3777 0 12.185 0 10.9414C0 9.6978 0.494018 8.50514 1.37338 7.62578L3.25775 5.74219C4.10266 4.89519 5.23945 4.4033 6.43527 4.36728C7.63109 4.33126 8.79542 4.75383 9.68978 5.54843C9.78212 5.63051 9.85738 5.72997 9.91128 5.84113C9.96518 5.9523 9.99665 6.07299 10.0039 6.19632C10.0112 6.31964 9.99406 6.44319 9.95356 6.55991C9.91307 6.67663 9.84998 6.78422 9.76791 6.87656C9.68583 6.9689 9.58637 7.04416 9.47521 7.09806C9.36404 7.15196 9.24335 7.18343 9.12003 7.19069C8.9967 7.19794 8.87315 7.18083 8.75643 7.14034C8.63972 7.09985 8.53212 7.03676 8.43978 6.95468C7.90347 6.47838 7.20544 6.22498 6.48847 6.24633C5.7715 6.26768 5.08978 6.56216 4.58275 7.06953L2.69994 8.95078C2.17241 9.47831 1.87604 10.1938 1.87604 10.9398C1.87604 11.6859 2.17241 12.4014 2.69994 12.9289C3.22747 13.4564 3.94296 13.7528 4.689 13.7528C5.43504 13.7528 6.15053 13.4564 6.67806 12.9289L7.14213 12.4648C7.2292 12.3777 7.33259 12.3085 7.4464 12.2613C7.56021 12.2142 7.68221 12.1899 7.80541 12.1899C7.92861 12.1899 8.0506 12.2142 8.16441 12.2613C8.27822 12.3085 8.38162 12.3777 8.46869 12.4648ZM14.2562 1.37109C13.3761 0.493085 12.1837 0 10.9406 0C9.69741 0 8.50502 0.493085 7.62494 1.37109L7.16088 1.83515C6.98476 2.01127 6.88581 2.25014 6.88581 2.49922C6.88581 2.74829 6.98476 2.98716 7.16088 3.16328C7.337 3.3394 7.57587 3.43834 7.82494 3.43834C8.07401 3.43834 8.31288 3.3394 8.489 3.16328L8.95306 2.69922C9.4806 2.17168 10.1961 1.87532 10.9421 1.87532C11.6882 1.87532 12.4037 2.17168 12.9312 2.69922C13.4587 3.22675 13.7551 3.94224 13.7551 4.68828C13.7551 5.43432 13.4587 6.14981 12.9312 6.67734L11.0476 8.56172C10.5401 9.06888 9.85803 9.36293 9.14088 9.3837C8.42373 9.40446 7.72575 9.15038 7.18978 8.67343C7.09745 8.59136 6.98985 8.52827 6.87313 8.48778C6.75642 8.44729 6.63287 8.43018 6.50954 8.43743C6.38621 8.44469 6.26552 8.47616 6.15436 8.53006C6.04319 8.58396 5.94373 8.65922 5.86166 8.75156C5.77958 8.8439 5.7165 8.95149 5.676 9.06821C5.63551 9.18493 5.6184 9.30847 5.62566 9.4318C5.63291 9.55513 5.66439 9.67582 5.71828 9.78699C5.77218 9.89815 5.84745 9.99761 5.93978 10.0797C6.83352 10.8741 7.99707 11.2969 9.19233 11.2617C10.3876 11.2264 11.5242 10.7356 12.3695 9.88984L14.2538 8.00625C15.1329 7.12639 15.6268 5.93366 15.6273 4.68994C15.6277 3.44621 15.1346 2.25314 14.2562 1.37265V1.37109Z" fill="black"/>
</svg>
