<svg width="16" height="16" viewBox="0 0 16 16" fill="none" xmlns="http://www.w3.org/2000/svg">
<path fill-rule="evenodd" clip-rule="evenodd" d="M0 8C0 11.96 2.88 15.24 6.68005 15.92L6.72729 15.8813C6.72485 15.8809 6.72241 15.8805 6.71997 15.88V10.24H4.71997V8H6.71997V6.23999C6.71997 4.23999 8 3.12 9.83997 3.12C10.4 3.12 11.04 3.19995 11.6 3.28003V5.31995H10.5601C9.59998 5.31995 9.35999 5.80005 9.35999 6.43994V8H11.48L11.12 10.24H9.35999V15.88C9.33557 15.8844 9.31128 15.8888 9.28687 15.8929L9.31995 15.92C13.12 15.24 16 11.96 16 8C16 3.59998 12.4 0 8 0C3.59998 0 0 3.59998 0 8Z" fill="black"/>
</svg>
