<svg width="16" height="19" viewBox="0 0 16 19" fill="none" xmlns="http://www.w3.org/2000/svg">
<path d="M11.0347 1.04841C9.36815 0.661158 7.63511 0.661158 5.96853 1.04841C5.00615 0.457947 4.27126 0.18695 3.73704 0.071925C3.50954 0.0208027 3.27565 -0.00344111 3.04176 0.000393063C2.93569 0.00294918 2.82961 0.0156892 2.72609 0.0386942L2.71203 0.0412684L2.70692 0.0438427H2.70181C2.60596 0.0706819 2.51777 0.119229 2.44236 0.18441C2.36696 0.249591 2.30689 0.330106 2.26599 0.420848C1.8634 1.32188 1.78672 2.33414 2.04872 3.28501C1.37007 4.10808 1.0007 5.14201 1.00326 6.20791C1.00326 8.32565 1.62824 9.74936 2.69286 10.6632C3.43797 11.3048 4.34411 11.6447 5.25153 11.8403C5.10839 12.2595 5.0547 12.7043 5.09304 13.1465V13.9619C4.53836 14.0769 4.15368 14.0398 3.88018 13.9504C3.53766 13.8366 3.27437 13.6091 3.02259 13.2819C2.89095 13.1056 2.76827 12.9228 2.65452 12.7349L2.57655 12.6071C2.47814 12.4448 2.37718 12.2838 2.2711 12.1253C2.01293 11.7419 1.62823 11.2626 1.00582 11.099L0.346349 10.9252L0 12.2455L0.660754 12.418C0.769389 12.4448 0.911241 12.547 1.14385 12.8896C1.23331 13.025 1.32022 13.1618 1.4033 13.3011L1.49533 13.4519C1.62441 13.6589 1.77138 13.8877 1.94137 14.1114C2.28644 14.5612 2.75675 15.015 3.45457 15.245C3.93257 15.4035 4.47446 15.4418 5.09304 15.346V17.8919C5.09304 18.0721 5.16591 18.2459 5.29371 18.3737C5.42152 18.5015 5.59405 18.5731 5.77554 18.5731H11.2277C11.4092 18.5731 11.5817 18.5015 11.7095 18.3737C11.8374 18.2459 11.9102 18.0721 11.9102 17.8919V13.034C11.9102 12.6046 11.891 12.2109 11.7696 11.8441C12.6732 11.6537 13.5717 11.3124 14.313 10.6721C15.3763 9.75066 16 8.3129 16 6.18365V6.18233C15.9962 5.12537 15.6255 4.10169 14.952 3.28501C15.214 2.33541 15.1373 1.32313 14.736 0.422096C14.6951 0.331354 14.635 0.250839 14.5596 0.185658C14.4855 0.120477 14.396 0.07193 14.3014 0.0450908L14.1136 0.699487C14.3015 0.0451213 14.3002 0.0450908 14.2976 0.0450908L14.2951 0.0438427L14.29 0.0412684L14.2772 0.0386942C14.2439 0.0297478 14.2094 0.0220907 14.1749 0.0182565C14.1046 0.00675402 14.0318 0.00167112 13.9602 0.000393063C13.7263 -0.00344111 13.4925 0.0208027 13.265 0.071925C12.732 0.18695 11.9971 0.457947 11.0347 1.04841Z" fill="black"/>
</svg>
