<svg width="16" height="16" viewBox="0 0 16 16" fill="none" xmlns="http://www.w3.org/2000/svg">
<path fill-rule="evenodd" clip-rule="evenodd" d="M3.49681 0.01875C3.68681 0.00375002 4.66306 0 8.00306 0H10.6068C12.4928 0.00369811 12.5919 0.0183369 12.9515 0.071489L12.9668 0.0737501C13.7393 0.185 14.3856 0.4925 14.9156 0.9975C15.2118 1.28375 15.4156 1.5625 15.6006 1.93625C15.8243 2.3925 15.9343 2.825 15.9843 3.4675C15.9956 3.605 16.0006 5.8 16.0006 7.995C16.0006 10.19 15.9956 12.3875 15.9856 12.525C15.9356 13.1575 15.8256 13.5938 15.6081 14.0413C15.1756 14.9325 14.3818 15.5825 13.4243 15.83C13.0756 15.92 12.7618 15.9625 12.2206 15.9875C12.0268 15.9975 10.0068 16 7.98556 16C5.96556 16 3.94681 15.9938 3.74806 15.985C3.28056 15.9625 2.91681 15.9163 2.58681 15.8313C1.63431 15.585 0.825556 14.925 0.401806 14.0463C0.180556 13.5875 0.0755556 13.1675 0.0205556 12.5013C0.00430557 12.3113 0.000555556 11.335 0.000555556 7.99625C0.000555556 7.58768 0.000390323 7.21679 0.000240081 6.87955C-2.29143e-05 6.28921 -0.000239977 5.80197 0.000555556 5.39625C0.00423429 3.52133 0.0199423 3.41231 0.071281 3.05601C0.0722758 3.0491 0.0732839 3.0421 0.0743056 3.035C0.185556 2.26375 0.493055 1.61625 1.00056 1.08875C1.27931 0.8 1.56181 0.59375 1.92056 0.415C2.38431 0.18375 2.81056 0.0762499 3.49681 0.01875ZM5.55057 2.09005C6.18557 2.0613 6.38807 2.05505 8.00432 2.05505H8.00182C9.61807 2.05505 9.82057 2.0613 10.4543 2.09005C11.0881 2.1188 11.5206 2.22005 11.8993 2.3663C12.2918 2.5188 12.6218 2.7213 12.9531 3.05255C13.2843 3.38255 13.4868 3.7138 13.6393 4.10505C13.7856 4.48255 13.8868 4.91505 13.9156 5.54755C13.9443 6.18255 13.9518 6.38505 13.9518 7.9988C13.9518 9.6138 13.9443 9.81505 13.9156 10.4501C13.8868 11.0826 13.7856 11.5138 13.6393 11.8926C13.4868 12.2838 13.2843 12.6151 12.9531 12.9451C12.6231 13.2763 12.2918 13.4801 11.9006 13.6313C11.5218 13.7788 11.0893 13.8788 10.4556 13.9076C9.82057 13.9363 9.61932 13.9438 8.00307 13.9438C6.38807 13.9438 6.18432 13.9363 5.55057 13.9076C4.91682 13.8788 4.48432 13.7788 4.10682 13.6313C3.71557 13.4801 3.38307 13.2763 3.05307 12.9451C2.72182 12.6151 2.51932 12.2838 2.36682 11.8926C2.21932 11.5138 2.11932 11.0826 2.09057 10.4501C2.06182 9.81505 2.05432 9.6138 2.05432 7.9988C2.05432 6.38505 2.06182 6.1813 2.09057 5.54755C2.11932 4.91505 2.21932 4.48255 2.36682 4.10505C2.51932 3.7138 2.72182 3.38255 3.05307 3.05255C3.38432 2.7213 3.71557 2.5188 4.10682 2.3663C4.48557 2.22005 4.91807 2.1188 5.55057 2.09005ZM7.80567 3.12601C7.68518 3.12574 7.5736 3.12549 7.47057 3.1263V3.1238C6.36182 3.12505 6.14932 3.13255 5.60057 3.15755C5.01932 3.1838 4.70557 3.2813 4.49557 3.36255C4.21807 3.47005 4.01932 3.60005 3.81057 3.80755C3.60307 4.01505 3.47432 4.2138 3.36557 4.4913C3.28432 4.70005 3.18807 5.01505 3.16057 5.59505C3.13307 6.2213 3.12682 6.4088 3.12682 7.9963C3.12682 9.5838 3.13307 9.7713 3.16057 10.3988C3.18807 10.9776 3.28432 11.2926 3.36557 11.5013C3.47432 11.7801 3.60307 11.9776 3.81057 12.1851C4.01932 12.3938 4.21807 12.5226 4.49557 12.6301C4.70557 12.7113 5.01932 12.8076 5.60057 12.8351C6.22682 12.8638 6.41557 12.8688 8.00432 12.8688C9.59182 12.8688 9.78057 12.8638 10.4081 12.8351C10.9881 12.8088 11.3031 12.7113 11.5118 12.6301C11.7893 12.5226 11.9881 12.3938 12.1956 12.1851C12.4043 11.9776 12.5331 11.7801 12.6406 11.5026C12.7218 11.2926 12.8193 10.9788 12.8456 10.3988C12.8743 9.77255 12.8806 9.5838 12.8806 7.99755C12.8806 6.4113 12.8743 6.22255 12.8456 5.5963C12.8193 5.0163 12.7218 4.70255 12.6406 4.49255C12.5331 4.21505 12.4043 4.01755 12.1956 3.8088C11.9881 3.6013 11.7893 3.47255 11.5118 3.36505C11.3031 3.2838 10.9881 3.1863 10.4081 3.16005C9.78057 3.1313 9.59182 3.1263 8.00432 3.1263C7.93558 3.1263 7.86938 3.12615 7.80567 3.12601ZM10.4656 4.8263C10.4656 4.4313 10.7856 4.11255 11.1793 4.11255C11.5731 4.11255 11.8931 4.43255 11.8931 4.8263C11.8931 5.22005 11.5731 5.5388 11.1793 5.5388C10.7856 5.5388 10.4656 5.22005 10.4656 4.8263ZM4.94932 7.9988C4.94932 6.31255 6.31682 4.9463 8.00432 4.9463H8.00307C9.69057 4.9463 11.0581 6.31255 11.0581 7.9988C11.0581 9.68505 9.69057 11.0513 8.00432 11.0513C6.31682 11.0513 4.94932 9.68505 4.94932 7.9988ZM9.98682 7.9988C9.98682 6.90505 9.09932 6.01755 8.00432 6.01755C6.90807 6.01755 6.02057 6.90505 6.02057 7.9988C6.02057 9.0938 6.90807 9.98005 8.00432 9.98005C9.09932 9.98005 9.98682 9.0938 9.98682 7.9988Z" fill="black"/>
</svg>
