<svg width="16" height="16" viewBox="0 0 16 16" fill="none" xmlns="http://www.w3.org/2000/svg">
<path d="M14.2227 0C14.6933 0 15.1453 0.186655 15.4787 0.521322C15.8133 0.854655 16 1.30668 16 1.77734V14.2227C16 14.6933 15.8133 15.1453 15.4787 15.4787C15.1453 15.8133 14.6933 16 14.2227 16H1.77732C1.30666 16 0.854675 15.8133 0.521342 15.4787C0.186675 15.1453 0 14.6933 0 14.2227V1.77734C0 1.30668 0.186675 0.854655 0.521342 0.521322C0.854675 0.186655 1.30666 0 1.77732 0H14.2227ZM13.7773 13.7773V9.06665C13.7773 8.29865 13.472 7.56133 12.9293 7.01733C12.3853 6.47467 11.648 6.16935 10.88 6.16935C10.124 6.16935 9.24401 6.63064 8.81734 7.32397V6.33732H6.33734V13.7773H8.81734V9.396C8.81734 8.71066 9.36932 8.15064 10.0533 8.15064C10.384 8.15064 10.7 8.2827 10.9333 8.51603C11.1667 8.74937 11.2973 9.06533 11.2973 9.396V13.7773H13.7773ZM3.44934 4.94263C3.84534 4.94263 4.22533 4.78537 4.50533 4.50537C4.78533 4.22537 4.94267 3.8453 4.94267 3.4493C4.94267 2.62263 4.27601 1.9467 3.44934 1.9467C3.05067 1.9467 2.66799 2.1053 2.38666 2.38664C2.10532 2.66797 1.94668 3.05063 1.94668 3.4493C1.94668 4.27597 2.62267 4.94263 3.44934 4.94263ZM4.684 13.7773V6.33732H2.22268V13.7773H4.684Z" fill="black"/>
</svg>
