<svg width="16" height="13" viewBox="0 0 16 13" fill="none" xmlns="http://www.w3.org/2000/svg">
<path d="M8.1962 0C8.62341 0.00240006 9.69145 0.0120419 10.8279 0.057643L11.2311 0.0755878C12.3747 0.129589 13.5171 0.22198 14.0836 0.379184C14.8396 0.592789 15.4336 1.21203 15.634 1.99685C15.9544 3.24488 15.994 5.67854 15.9988 6.26895L16 6.39017V6.52933C15.994 7.11855 15.9544 9.55343 15.634 10.8003C15.4312 11.5887 14.8372 12.2091 14.0836 12.4179C13.5171 12.5763 12.3747 12.6687 11.2311 12.7227L10.8279 12.7407C9.69145 12.7851 8.62341 12.7971 8.1962 12.7983L8.0078 12.7995H7.8038C6.90018 12.7935 3.11889 12.7527 1.91526 12.4179C1.16044 12.2055 0.566415 11.5863 0.36481 10.8003C0.0456021 9.55223 0.00480012 7.11855 0 6.52933V6.26895C0.00480012 5.67854 0.0456021 3.24488 0.36481 1.99685C0.568815 1.20963 1.16283 0.589234 1.91645 0.380429C3.11888 0.045621 6.90018 0.00480012 7.80501 0H8.1962ZM6.39977 3.60009V9.19944L11.1999 6.39977L6.39977 3.60009Z" fill="black"/>
</svg>
